<svg width="401" height="100" viewBox="0 0 401 100" fill="none" xmlns="http://www.w3.org/2000/svg">
<path d="M395.408 0H5.59163C2.50346 0 0 2.50721 0 5.6V94.4C0 97.4928 2.50346 100 5.59163 100H395.408C398.497 100 401 97.4928 401 94.4V5.6C401 2.50721 398.497 0 395.408 0Z" fill="#3178C6"/>
<path fill-rule="evenodd" clip-rule="evenodd" d="M244.834 75.4788V71.7296C248.251 73.8972 251.712 74.9808 255.218 74.9808C258.946 74.9808 261.775 74.2124 263.706 72.6752C265.636 71.138 266.601 68.9872 266.601 66.2224C266.601 63.7896 265.952 61.8488 264.654 60.4C263.402 59.0032 260.743 57.118 256.674 54.744L256.217 54.4783C251.38 51.6691 248.317 49.3191 247.031 47.4283C245.744 45.5371 245.1 43.3531 245.1 40.8759C245.1 37.5141 246.409 34.661 249.028 32.3166C251.646 29.9721 255.141 28.7999 259.512 28.7999C262.352 28.7999 265.192 29.2754 268.032 30.2265V33.6768C265.236 32.4161 262.252 31.7858 259.079 31.7858C255.84 31.7858 253.271 32.6041 251.374 34.2408C249.477 35.8775 248.528 37.9565 248.528 40.4779C248.528 42.9107 249.177 44.8459 250.475 46.2835C251.773 47.7211 254.575 49.6787 258.88 52.1559C263.339 54.6771 266.307 56.9167 267.783 58.8739C269.258 60.8315 269.996 63.0819 269.996 65.6251C269.996 69.2747 268.726 72.2495 266.185 74.5495C263.644 76.8499 260.055 77.9999 255.418 77.9999C253.776 77.9999 251.884 77.7455 249.743 77.2367C247.602 76.7283 245.965 76.142 244.834 75.4788ZM126.542 36.3051H140.19V29.6H105.043V36.3051H118.658V77.2H126.542V36.3051ZM152.772 82.6424L168.149 43.2H160.36L151.84 67.9676C151.638 68.7268 151.479 69.3448 151.364 69.822L151.241 70.358H151.074C150.897 69.5992 150.755 69.0064 150.65 68.58L150.475 67.9012L142.354 43.2H133.8L147.347 77.1308L145.05 82.7088C143.63 85.5416 141.477 86.9584 138.593 86.9584C137.594 86.9584 136.485 86.7592 135.265 86.3608V92.7684C136.352 93.056 137.705 93.2 139.325 93.2C145.094 93.2 149.576 89.6808 152.772 82.6424ZM180.788 72.1624H180.655V92.8H172.941V43.1964H180.655V49.1688H180.788C183.426 44.656 187.283 42.4 192.36 42.4C196.682 42.4 200.051 43.9152 202.468 46.9456C204.884 49.976 206.092 54.046 206.092 59.1556C206.092 64.8184 204.729 69.3528 202.002 72.7596C199.276 76.166 195.552 77.8692 190.83 77.8692C186.485 77.8692 183.138 75.9668 180.788 72.1624ZM180.53 63.1556V58.9644C180.53 56.0604 181.366 53.6404 183.038 51.704C184.71 49.768 186.919 48.8 189.666 48.8C192.257 48.8 194.311 49.7404 195.828 51.6216C197.345 53.5028 198.104 56.1044 198.104 59.4264C198.104 63.3868 197.29 66.4724 195.662 68.6832C194.034 70.8944 191.792 72 188.935 72C186.499 72 184.489 71.142 182.905 69.426C181.322 67.71 180.53 65.6196 180.53 63.1556ZM240.84 62.292H217.832C217.92 65.436 218.881 67.86 220.716 69.5648C222.551 71.2696 225.073 72.122 228.281 72.122C231.885 72.122 235.192 71.0372 238.203 68.8676V75.0776C235.126 77.026 231.061 78 226.007 78C221.04 78 217.145 76.4556 214.321 73.3672C211.498 70.2788 210.086 65.934 210.086 60.3328C210.086 55.0416 211.641 50.73 214.75 47.398C217.859 44.066 221.722 42.4 226.336 42.4C230.951 42.4 234.522 43.8944 237.049 46.8832C239.576 49.872 240.84 54.0232 240.84 59.3364V62.292ZM231.712 50.3168C232.982 51.8612 233.629 54.0224 233.651 56.8H218.074C218.425 54.1776 219.361 52.0556 220.884 50.4332C222.406 48.8112 224.263 48 226.454 48C228.688 48 230.441 48.7724 231.712 50.3168ZM289.53 78C293.05 78 296.08 77.2264 298.619 75.6796V72.4976C296.08 74.3096 293.094 75.2156 289.664 75.2156C285.92 75.2156 282.907 73.8788 280.624 71.2048C278.34 68.5308 277.198 64.9952 277.198 60.5976C277.198 56.0456 278.446 52.3388 280.941 49.4768C283.436 46.6152 286.689 45.1844 290.699 45.1844C293.618 45.1844 296.302 45.9356 298.753 47.4384V43.9912C296.302 42.9304 293.774 42.4 291.167 42.4C286.132 42.4 282.011 44.118 278.803 47.5544C275.594 50.9908 273.99 55.4048 273.99 60.7968C273.99 65.9236 275.416 70.0724 278.268 73.2432C281.12 76.4144 284.874 78 289.53 78ZM318.723 46.2668C317.709 45.5332 316.518 45.1668 315.151 45.1668C312.483 45.1668 310.245 46.5556 308.436 49.3332C306.628 52.1112 305.724 56.0556 305.724 61.1668V77.2H302.747V43.0668H305.724V50.6332H305.857C306.628 48.0332 307.852 46.0112 309.528 44.5668C311.204 43.1224 313.144 42.4 315.35 42.4C316.606 42.4 317.731 42.6 318.723 43L318.723 46.2668ZM323.493 34.0473C324.01 34.5491 324.605 34.8 325.28 34.8C325.999 34.8 326.617 34.5377 327.134 34.0131C327.651 33.4886 327.91 32.8614 327.91 32.1315C327.91 31.3561 327.646 30.7403 327.117 30.2842C326.589 29.828 325.976 29.6 325.28 29.6C324.628 29.6 324.038 29.8337 323.51 30.3013C322.981 30.7689 322.717 31.3789 322.717 32.1315C322.717 32.907 322.976 33.5456 323.493 34.0473ZM323.516 77.2V43.2H326.711V77.2H323.516ZM336.946 71.148H337.078C339.505 75.7236 343.256 78.0116 348.331 78.0116C352.876 78.0116 356.534 76.2596 359.303 72.756C362.072 69.2524 363.456 64.66 363.456 58.9788C363.456 53.8728 362.248 49.8328 359.832 46.8596C357.416 43.8864 354.057 42.4 349.754 42.4C347.04 42.4 344.552 43.0796 342.291 44.4392C340.029 45.7988 338.292 47.7272 337.078 50.2252H336.946V43.2288H333.9V92.8H336.945L336.946 71.148ZM337.096 58.5112V62.7828C337.096 66.1824 338.177 69.1016 340.338 71.5412C342.5 73.9804 345.341 75.2 348.861 75.2C352.36 75.2 355.201 73.7156 357.385 70.7464C359.569 67.7772 360.661 63.8756 360.661 59.0412C360.661 54.8028 359.658 51.4364 357.652 48.9416C355.647 46.4472 352.973 45.2 349.63 45.2C345.641 45.2 342.555 46.5244 340.371 49.1736C338.188 51.8224 337.096 54.9352 337.096 58.5112ZM378.184 78C379.566 78 381.048 77.6247 382.628 76.8744V74.0268C381.18 74.8436 379.83 75.252 378.579 75.252C376.823 75.252 375.578 74.7276 374.843 73.6792C374.108 72.6308 373.74 70.9368 373.74 68.5968V46.2148H382.628V43.4336H373.74V33.6C373.257 33.7766 372.752 33.9421 372.226 34.0966C371.699 34.2732 371.194 34.4498 370.711 34.6264V43.4336H364.655V46.2148H370.711V68.994C370.711 74.998 373.202 78 378.184 78Z" fill="white"/>
</svg>
